<svg width="16" height="16" viewBox="0 0 16 16" xmlns="http://www.w3.org/2000/svg" fill="currentColor"><path d="M2 8C2 4.68629 4.68629 2 8 2C11.3137 2 14 4.68629 14 8C14 11.3137 11.3137 14 8 14C4.68629 14 2 11.3137 2 8ZM8 1C4.13401 1 1 4.13401 1 8C1 11.866 4.13401 15 8 15C11.866 15 15 11.866 15 8C15 4.13401 11.866 1 8 1ZM8 4.5C8 4.22386 7.77614 4 7.5 4C7.22386 4 7 4.22386 7 4.5V8.5C7 8.67154 7.08791 8.83107 7.23291 8.92263L9.73291 10.5C9.96638 10.6474 10.2753 10.5775 10.4226 10.344C10.57 10.1106 10.5001 9.80164 10.2666 9.65431L8 8.22368V4.5Z"/></svg>