<svg width="16" height="16" viewBox="0 0 16 16" xmlns="http://www.w3.org/2000/svg" fill="currentColor">
  <g>
    <rect x="7.5" y="1" width="1" height="3.5" rx=".5"/>
    <rect x="7.5" y="1" width="1" height="3.5" rx=".5" transform="rotate(45 8 8)"/>
    <rect x="7.5" y="1" width="1" height="3.5" rx=".5" transform="rotate(90 8 8)"/>
    <rect x="7.5" y="1" width="1" height="3.5" rx=".5" transform="rotate(135 8 8)"/>
    <rect x="7.5" y="1" width="1" height="3.5" rx=".5" transform="rotate(180 8 8)"/>
    <rect x="7.5" y="1" width="1" height="3.5" rx=".5" transform="rotate(225 8 8)"/>
    <rect x="7.5" y="1" width="1" height="3.5" rx=".5" transform="rotate(270 8 8)"/>
    <rect x="7.5" y="1" width="1" height="3.5" rx=".5" transform="rotate(315 8 8)"/>
  </g>
</svg>
